<svg width="362" height="65" viewBox="0 0 362 65" fill="none" xmlns="http://www.w3.org/2000/svg">
<path d="M245.975 47.1714H278.647V39.9286H257.113C260.083 28.0429 278.276 25.4429 278.276 12.2571C278.276 5.2 273.449 0 263.239 0C256.927 0 251.358 1.85714 247.645 3.71429L249.873 10.4C253.215 8.72857 257.113 7.24286 261.94 7.24286C265.653 7.24286 269.18 8.91428 269.18 13.1857C269.18 22.8429 247.831 23.5857 245.975 47.1714ZM279.576 35.6571H300.553V47.1714H308.907V35.6571H315.961V28.6H308.907V0H302.781L279.576 30.0857V35.6571ZM289.043 28.9714L300.924 13C300.924 14.3 300.553 18.3857 300.553 22.1V28.7857H294.984C293.313 28.7857 290.157 28.9714 289.043 28.9714Z" fill="#005893"/>
<path d="M8.72513 40.1142V25.4428H12.2523C15.4082 25.4428 18.0072 25.8142 19.8636 26.9285C21.72 28.0428 22.8338 29.9 22.8338 32.8714C22.8338 37.8857 19.8636 40.1142 12.8092 40.1142H8.72513ZM0.185641 47.1714H12.6236C26.5467 47.1714 31.559 41.0428 31.559 32.5C31.559 26.7428 29.1456 22.8428 24.8759 20.6142C21.5344 18.7571 17.2646 18.2 12.0667 18.2H8.72513V7.0571H27.4749L29.7026 0.185669H0V47.1714H0.185641ZM37.3138 47.1714H45.4821L56.0636 31.9428C58.1056 29.1571 59.5908 26.3714 60.519 24.8857H60.7046C60.519 26.9285 60.3333 29.5285 60.3333 32.1285V46.9857H68.6872V13.5571H60.519L49.9374 28.7857C48.081 31.5714 46.4103 34.3571 45.4821 35.8428H45.2964C45.4821 33.8 45.6677 31.2 45.6677 28.6V13.7428H37.3138V47.1714ZM82.9815 47.1714H91.521V20.6142H101.546L103.773 13.5571H72.7713V20.6142H82.9815V47.1714ZM106.744 64.0714H115.097V47.1714C116.768 47.7285 118.439 47.9142 120.295 47.9142C130.877 47.9142 137.746 40.6714 137.746 30.2714C137.746 19.5 131.434 12.6285 119.367 12.6285C114.726 12.6285 110.271 13.5571 106.558 14.6714V64.0714H106.744ZM115.097 39.9285V20.2428C116.397 19.8714 117.511 19.6857 118.996 19.6857C125.122 19.6857 129.021 23.0285 129.021 30.2714C129.021 36.7714 125.865 40.8571 119.553 40.8571C117.882 40.8571 116.583 40.4857 115.097 39.9285ZM142.758 47.1714H150.926L161.508 31.9428C163.55 29.1571 165.035 26.3714 165.963 24.8857H166.149C165.963 26.9285 165.777 29.5285 165.777 32.1285V46.9857H174.131V13.5571H165.963L155.382 28.7857C153.525 31.5714 151.854 34.3571 150.926 35.8428H150.741C150.926 33.8 151.112 31.2 151.112 28.6V13.7428H142.758V47.1714ZM180.814 47.1714H189.354V33.2428H194.366C195.294 33.2428 196.223 34.1714 197.336 36.4L201.606 47.1714H210.703L204.576 34.3571C203.463 32.1285 202.349 30.8285 200.678 30.2714V30.0857C203.463 28.4142 203.834 23.5857 205.505 21.1714C206.062 20.4285 206.804 20.0571 207.918 20.0571C208.475 20.0571 209.217 20.0571 209.774 20.4285V13.1857C208.846 12.8142 207.175 12.6285 206.247 12.6285C203.277 12.6285 201.421 13.7428 200.121 15.6C197.336 19.6857 197.336 26.7428 193.252 26.7428H189.354V13.5571H180.814V47.1714ZM229.638 47.9142C234.279 47.9142 238.549 46.4285 241.148 44.5714L238.734 38.8142C236.321 40.1142 234.093 41.0428 230.937 41.0428C225.183 41.0428 221.47 37.3285 221.47 30.4571C221.47 24.3285 225.183 19.5 231.494 19.5C234.836 19.5 237.249 20.4285 239.663 22.1V14.8571C237.806 13.7428 234.836 12.6285 230.566 12.6285C220.542 12.6285 212.745 20.0571 212.745 30.6428C212.745 40.3 218.685 47.9142 229.638 47.9142Z" fill="#0BBBEF"/>
<path d="M343.622 35.6571C352.718 35.6571 360.144 28.2285 360.144 19.1285C360.144 10.0285 352.718 2.59998 343.622 2.59998C334.525 2.59998 327.1 10.0285 327.1 19.1285C327.285 28.2285 334.525 35.6571 343.622 35.6571Z" stroke="#005893" stroke-width="1.7688"/>
<path d="M354.018 19.1286H344.921V10.0286H342.508V21.5428H354.018V19.1286Z" fill="#005893"/>
</svg>
