<svg width="157" height="78" viewBox="0 0 157 78" fill="none" xmlns="http://www.w3.org/2000/svg">
<path d="M95.4864 51.7043H104.385V59.9555H75.5947V51.7043H84.8862V34.0232C81.4837 35.5949 78.7355 36.5117 76.6417 36.7736V28.3915C82.0072 27.3437 85.6714 25.2482 87.3727 22.2358H95.4864V51.7043Z" fill="white"/>
<path d="M138.672 50.7872V60.2171H109.097V51.3111L115.64 46.7271C116.556 46.0723 118.388 44.6316 121.006 42.536C123.623 40.3095 125.324 38.6069 126.109 37.5591C126.894 36.5114 127.287 35.2017 127.287 34.0229C127.287 32.8442 126.894 31.7964 126.24 31.1416C125.586 30.4867 124.539 30.0938 123.492 30.0938C120.744 30.0938 119.043 32.3203 118.781 36.7733L109.097 34.8088C109.751 30.2248 111.583 26.9505 114.331 24.724C117.08 22.4975 120.351 21.4497 124.277 21.4497C128.465 21.4497 131.737 22.4975 134.354 24.724C136.971 26.9505 138.28 29.8319 138.28 33.63C138.28 36.1185 137.626 38.4759 136.186 40.7024C134.746 42.929 130.559 46.3342 123.623 50.9182C123.623 50.7872 138.672 50.7872 138.672 50.7872Z" fill="white"/>
<path d="M27.1742 60.2175L30.9693 52.0973L23.1174 36.3808L32.6706 22.7598H22.2013L11.8629 38.2143V22.7598H1.13184V60.2175H11.8629V51.4424L15.9197 45.9416L22.2013 60.2175H27.1742Z" fill="white"/>
<path d="M138.672 1.28027V18.8304H155.946V1.28027H138.672ZM146.262 11.365L140.897 13.8535V12.4128L144.299 10.8412C144.168 10.7102 143.907 10.7102 143.645 10.5792L142.074 9.79339C141.813 9.66242 141.551 9.53145 141.42 9.40048C141.289 9.2695 141.027 9.2695 141.027 9.2695L140.897 9.13853V7.69785L146.262 10.3173V11.365ZM153.329 15.949H146.916V14.7703H153.329V15.949Z" fill="#E4A43F"/>
<path d="M40.6538 65.1944L46.4119 52.2283H56.7504L57.7973 60.0865H69.1827L63.2937 21.5811H50.9923L31.1006 65.1944H40.6538ZM54.5257 33.1065L56.096 44.239H49.4219L54.5257 33.1065Z" fill="white"/>
<path d="M0.9375 75.2014L3.19019 69.2663H4.5285L6.74794 75.2014H5.393L4.94413 73.8798H2.72469L2.25919 75.2014H0.9375ZM3.0655 72.9072H4.60331L3.85519 70.7293H3.83856L3.0655 72.9072Z" fill="white"/>
<path d="M8.44724 75.2014V69.2663H11.2402C12.3707 69.2663 13.1355 69.6321 13.1355 70.7376C13.1355 71.3278 12.8529 71.7185 12.3292 71.9762C13.0607 72.184 13.4181 72.7409 13.4181 73.4808C13.4181 74.6861 12.3957 75.2014 11.3234 75.2014H8.44724ZM9.7523 71.6686H11.074C11.5395 71.6686 11.872 71.4608 11.872 70.9621C11.872 70.4051 11.4397 70.2804 10.9742 70.2804H9.7523V71.6686ZM9.7523 74.1873H11.1488C11.6559 74.1873 12.1131 74.0211 12.1131 73.4059C12.1131 72.7991 11.739 72.5581 11.1737 72.5581H9.7523V74.1873Z" fill="white"/>
<path d="M16.801 75.2014V70.3636H15.0221V69.2663H19.8849V70.3636H18.106V75.2014H16.801Z" fill="white"/>
<path d="M21.3529 72.2588C21.3529 70.4966 22.4419 69.125 24.2706 69.125C26.0994 69.125 27.1883 70.4966 27.1883 72.2588C27.1883 73.9712 26.0994 75.3428 24.2706 75.3428C22.4419 75.3428 21.3529 73.9712 21.3529 72.2588ZM22.658 72.2588C22.658 73.248 23.0986 74.2455 24.2706 74.2455C25.4427 74.2455 25.8833 73.248 25.8833 72.2588C25.8833 71.2197 25.4427 70.2222 24.2706 70.2222C23.0986 70.2222 22.658 71.2197 22.658 72.2588Z" fill="white"/>
<path d="M29.2679 75.2014V69.2663H31.105L32.4932 73.3478H32.5098L33.8232 69.2663H35.6602V75.2014H34.4383V70.9953H34.4217L32.967 75.2014H31.9612L30.5065 71.0369H30.4899V75.2014H29.2679Z" fill="white"/>
<path d="M37.365 75.2014L39.6177 69.2663H40.956L43.1754 75.2014H41.8205L41.3716 73.8798H39.1522L38.6867 75.2014H37.365ZM39.493 72.9072H41.0308L40.2827 70.7293H40.2661L39.493 72.9072Z" fill="white"/>
<path d="M45.5712 75.2014V70.3636H43.7923V69.2663H48.6551V70.3636H46.8762V75.2014H45.5712Z" fill="white"/>
<path d="M55.5394 69.2663V75.2014H54.2343V71.1948H54.2094L51.9318 75.2014H50.527V69.2663H51.832V73.2646H51.857L54.1346 69.2663H55.5394Z" fill="white"/>
<path d="M62.3728 73.381C62.3728 74.5863 61.3587 75.3428 59.9622 75.3428C58.3995 75.3428 57.4934 74.578 57.4768 73.2563H58.7652C58.7901 74.0211 59.3138 74.3453 59.9955 74.3453C60.6438 74.3453 61.0678 73.9795 61.0678 73.3893C61.0678 72.716 60.5275 72.5498 59.9539 72.5498H59.505V71.6769H59.8791C60.594 71.6769 60.9265 71.4193 60.9265 70.9039C60.9265 70.4467 60.569 70.1308 59.9955 70.1308C59.3554 70.1308 58.9896 70.4467 58.9398 71.0202H57.7095C57.7428 69.6986 58.7735 69.125 60.0204 69.125C61.259 69.125 62.1484 69.7817 62.1484 70.7709C62.1484 71.3611 61.8408 71.7933 61.2506 71.9762C61.924 72.1424 62.3728 72.6246 62.3728 73.381Z" fill="white"/>
<path d="M63.8298 75.2014L66.0825 69.2663H67.4208L69.6402 75.2014H68.2853L67.8364 73.8798H65.617L65.1515 75.2014H63.8298ZM65.9578 72.9072H67.4956L66.7475 70.7293H66.7308L65.9578 72.9072Z" fill="white"/>
<path d="M76.992 76.7226H75.7202V75.2014H71.3395V69.2663H72.6446V74.1042H75.0469V69.2663H76.352V74.1042H76.992V76.7226Z" fill="white"/>
<path d="M83.8307 69.2663V75.2014H82.5256V71.1948H82.5007L80.223 75.2014H78.8182V69.2663H80.1233V73.2646H80.1482L82.4258 69.2663H83.8307Z" fill="white"/>
<path d="M88.852 72.8739L87.2393 75.2014H85.6267L87.4388 72.8074C86.591 72.6079 86.034 72.0427 86.034 71.0951C86.034 69.9313 86.9235 69.2663 88.0872 69.2663H90.9717V75.2014H89.6666V72.8739H88.852ZM89.6666 71.9346V70.2887H88.3117C87.6965 70.2887 87.3058 70.5132 87.3058 71.1034C87.3058 71.6686 87.6799 71.9346 88.2867 71.9346H89.6666Z" fill="white"/>
<path d="M101.818 69.2663V75.2014H100.513V70.3636H98.1109V75.2014H96.8058V69.2663H101.818Z" fill="white"/>
<path d="M104.155 75.2014V69.2663H106.831C108.319 69.2663 108.884 70.2056 108.884 71.1699C108.884 72.1341 108.319 73.0734 106.831 73.0734H105.46V75.2014H104.155ZM105.46 70.2804V72.0593H106.474C107.072 72.0593 107.621 71.9263 107.621 71.1699C107.621 70.4134 107.072 70.2804 106.474 70.2804H105.46Z" fill="white"/>
<path d="M110.629 72.2588C110.629 70.4966 111.718 69.125 113.547 69.125C115.375 69.125 116.464 70.4966 116.464 72.2588C116.464 73.9712 115.375 75.3428 113.547 75.3428C111.718 75.3428 110.629 73.9712 110.629 72.2588ZM111.934 72.2588C111.934 73.248 112.374 74.2455 113.547 74.2455C114.719 74.2455 115.159 73.248 115.159 72.2588C115.159 71.2197 114.719 70.2222 113.547 70.2222C112.374 70.2222 111.934 71.2197 111.934 72.2588Z" fill="white"/>
<path d="M119.089 76.7226H117.818V74.1042H118.266C118.981 73.1316 119.214 71.9097 119.214 70.1641V69.2663H123.445V74.1042H124.085V76.7226H122.813V75.2014H119.089V76.7226ZM122.14 74.1042V70.3636H120.502V70.4716C120.502 72.0926 120.27 73.1316 119.713 74.1042H122.14Z" fill="white"/>
<path d="M125.277 75.2014L127.53 69.2663H128.868L131.088 75.2014H129.733L129.284 73.8798H127.064L126.599 75.2014H125.277ZM127.405 72.9072H128.943L128.195 70.7293H128.178L127.405 72.9072Z" fill="white"/>
<path d="M135.33 72.6329L133.71 75.2014H132.138L134.508 71.7268L132.355 69.2663H133.951L135.971 71.6686V69.2663H137.259V71.7019L139.312 69.2663H140.875L138.73 71.6936L141.091 75.2014H139.478L137.891 72.6162L137.259 73.3311V75.2014H135.971V73.3644L135.33 72.6329Z" fill="white"/>
</svg>
