<svg width="1920" height="1064" viewBox="0 0 1920 1064" fill="none" xmlns="http://www.w3.org/2000/svg">
<g clip-path="url(#clip0_1792_583)">
<path d="M1082.63 253.848C1085.23 253.848 1087.33 251.747 1087.33 249.154C1087.33 246.562 1085.23 244.461 1082.63 244.461C1080.04 244.461 1077.93 246.562 1077.93 249.154C1077.93 251.747 1080.04 253.848 1082.63 253.848Z" fill="#525C6B"/>
<path d="M1256.07 169.361C1258.66 169.361 1260.77 167.26 1260.77 164.668C1260.77 162.075 1258.66 159.974 1256.07 159.974C1253.48 159.974 1251.37 162.075 1251.37 164.668C1251.37 167.26 1253.48 169.361 1256.07 169.361Z" stroke="#525C6B" stroke-width="0.4729" stroke-miterlimit="10"/>
<path d="M964.113 204.023C964.113 206.55 961.945 208.716 959.416 208.716C956.887 208.716 954.719 206.55 954.719 204.023C954.719 201.495 956.887 199.329 959.416 199.329C961.945 198.968 964.113 201.134 964.113 204.023Z" stroke="#525C6B" stroke-width="0.4729" stroke-miterlimit="10"/>
<path d="M560.867 154.197C563.462 154.197 565.565 152.096 565.565 149.503C565.565 146.911 563.462 144.81 560.867 144.81C558.273 144.81 556.17 146.911 556.17 149.503C556.17 152.096 558.273 154.197 560.867 154.197Z" stroke="#525C6B" stroke-width="0.4729" stroke-miterlimit="10"/>
<path d="M315.883 254.209C318.477 254.209 320.58 252.108 320.58 249.515C320.58 246.923 318.477 244.822 315.883 244.822C313.289 244.822 311.186 246.923 311.186 249.515C311.186 252.108 313.289 254.209 315.883 254.209Z" stroke="#525C6B" stroke-width="0.4729" stroke-miterlimit="10"/>
<path d="M414.889 625.735C417.483 625.735 419.586 623.634 419.586 621.042C419.586 618.449 417.483 616.348 414.889 616.348C412.294 616.348 410.191 618.449 410.191 621.042C410.191 623.634 412.294 625.735 414.889 625.735Z" stroke="#525C6B" stroke-width="0.4729" stroke-miterlimit="10"/>
<path d="M410.914 1056.47C413.508 1056.47 415.611 1054.37 415.611 1051.78C415.611 1049.19 413.508 1047.09 410.914 1047.09C408.32 1047.09 406.217 1049.19 406.217 1051.78C406.217 1054.37 408.32 1056.47 410.914 1056.47Z" stroke="#525C6B" stroke-width="0.4729" stroke-miterlimit="10"/>
<path d="M804.404 971.626C804.404 974.154 802.236 976.32 799.707 976.32C797.178 976.32 795.01 974.154 795.01 971.626C795.01 969.099 797.178 966.933 799.707 966.933C802.236 966.572 804.404 968.738 804.404 971.626Z" stroke="#525C6B" stroke-width="0.4729" stroke-miterlimit="10"/>
<path d="M1552.36 616.348C1552.36 618.875 1550.19 621.042 1547.66 621.042C1545.13 621.042 1542.97 618.875 1542.97 616.348C1542.97 613.821 1545.13 611.654 1547.66 611.654C1550.19 611.654 1552.36 613.821 1552.36 616.348Z" stroke="#525C6B" stroke-width="0.4729" stroke-miterlimit="10"/>
<path d="M1850.1 647.76C1850.1 650.287 1847.93 652.454 1845.4 652.454C1842.87 652.454 1840.71 650.287 1840.71 647.76C1840.71 645.233 1842.87 643.066 1845.4 643.066C1847.93 642.705 1850.1 644.871 1850.1 647.76Z" stroke="#525C6B" stroke-width="0.4729" stroke-miterlimit="10"/>
<path d="M1619.21 516.697C1619.21 524.279 1613.06 530.417 1605.48 530.417C1597.89 530.417 1591.75 524.279 1591.75 516.697C1591.75 509.115 1597.89 502.977 1605.48 502.977C1613.06 502.977 1619.21 509.115 1619.21 516.697Z" stroke="#525C6B" stroke-width="0.1891" stroke-miterlimit="10"/>
<path d="M1633.3 996.178C1633.3 1003.76 1627.16 1009.9 1619.57 1009.9C1611.98 1009.9 1605.84 1003.76 1605.84 996.178C1605.84 988.596 1611.98 982.458 1619.57 982.458C1626.8 982.458 1633.3 988.596 1633.3 996.178Z" stroke="#525C6B" stroke-width="0.4729" stroke-miterlimit="10"/>
<path d="M646.864 254.209C646.864 261.791 640.721 267.929 633.133 267.929C625.545 267.929 619.402 261.791 619.402 254.209C619.402 246.627 625.545 240.489 633.133 240.489C640.721 240.128 646.864 246.627 646.864 254.209Z" stroke="#525C6B" stroke-width="0.4729" stroke-miterlimit="10"/>
<path d="M443.434 673.034C443.434 680.616 437.291 686.754 429.703 686.754C422.115 686.754 415.973 680.616 415.973 673.034C415.973 665.452 422.115 659.314 429.703 659.314C437.291 658.953 443.434 665.452 443.434 673.034Z" stroke="#525C6B" stroke-width="0.4729" stroke-miterlimit="10"/>
<path d="M1503.94 687.115C1503.94 694.697 1497.8 700.835 1490.21 700.835C1482.63 700.835 1476.48 694.697 1476.48 687.115C1476.48 679.533 1482.63 673.395 1490.21 673.395C1497.44 673.034 1503.94 679.172 1503.94 687.115Z" stroke="#525C6B" stroke-width="0.1891" stroke-miterlimit="10"/>
<path d="M723.828 886.056C723.828 893.638 717.686 899.776 710.098 899.776C702.51 899.776 696.367 893.638 696.367 886.056C696.367 878.474 702.51 872.336 710.098 872.336C717.686 871.975 723.828 878.474 723.828 886.056Z" stroke="#525C6B" stroke-width="0.1891" stroke-miterlimit="10"/>
<path d="M1574.4 283.455C1577 283.455 1579.1 281.353 1579.1 278.761C1579.1 276.169 1577 274.067 1574.4 274.067C1571.81 274.067 1569.71 276.169 1569.71 278.761C1569.71 281.353 1571.81 283.455 1574.4 283.455Z" stroke="#525C6B" stroke-width="0.1891" stroke-miterlimit="10"/>
<path d="M1086.24 933.716C1088.84 933.716 1090.94 931.614 1090.94 929.022C1090.94 926.43 1088.84 924.328 1086.24 924.328C1083.65 924.328 1081.55 926.43 1081.55 929.022C1081.55 931.614 1083.65 933.716 1086.24 933.716Z" fill="#525C6B"/>
<path d="M1082.63 249.154L1127.44 204.384H1216.69L1252.82 168.278" stroke="#525C6B" stroke-width="0.4729" stroke-miterlimit="10"/>
<path d="M1127.8 207.272C1129.39 207.272 1130.69 205.979 1130.69 204.384C1130.69 202.788 1129.39 201.495 1127.8 201.495C1126.2 201.495 1124.91 202.788 1124.91 204.384C1124.91 205.979 1126.2 207.272 1127.8 207.272Z" fill="#525C6B"/>
<path d="M1216.68 207.272C1218.28 207.272 1219.57 205.979 1219.57 204.384C1219.57 202.788 1218.28 201.495 1216.68 201.495C1215.09 201.495 1213.79 202.788 1213.79 204.384C1213.79 205.979 1215.09 207.272 1216.68 207.272Z" fill="#525C6B"/>
<path d="M1171.16 264.68L1192.47 243.378H1355.07L1397.35 201.134H1497.08L1571.15 275.151" stroke="#525C6B" stroke-width="0.4729" stroke-miterlimit="10"/>
<path d="M1195.37 243.378C1195.37 244.822 1194.28 246.266 1192.47 246.266C1191.03 246.266 1189.58 245.183 1189.58 243.378C1189.58 241.933 1190.67 240.489 1192.47 240.489C1194.28 240.489 1195.37 241.933 1195.37 243.378Z" fill="#525C6B"/>
<path d="M1397.35 204.022C1398.95 204.022 1400.24 202.729 1400.24 201.134C1400.24 199.539 1398.95 198.246 1397.35 198.246C1395.75 198.246 1394.46 199.539 1394.46 201.134C1394.46 202.729 1395.75 204.022 1397.35 204.022Z" fill="#525C6B"/>
<path d="M1360.49 243.378C1360.49 246.266 1358.33 248.432 1355.44 248.432C1352.54 248.432 1350.38 246.266 1350.38 243.378C1350.38 240.489 1352.54 238.323 1355.44 238.323C1357.96 238.323 1360.49 240.489 1360.49 243.378Z" fill="#525C6B"/>
<path d="M1502.86 201.495C1502.86 204.384 1500.69 206.55 1497.8 206.55C1494.91 206.55 1492.74 204.384 1492.74 201.495C1492.74 198.607 1494.91 196.44 1497.8 196.44C1500.69 196.44 1502.86 198.968 1502.86 201.495Z" fill="#525C6B"/>
<path d="M1144.06 1009.9C1144.06 1012.06 1142.25 1013.51 1140.44 1013.51C1138.28 1013.51 1136.83 1011.7 1136.83 1009.9C1136.83 1008.09 1138.64 1006.29 1140.44 1006.29C1142.25 1006.29 1144.06 1008.09 1144.06 1009.9Z" stroke="#525C6B" stroke-width="0.4729" stroke-miterlimit="10"/>
<path d="M1154.54 1013.51C1156.53 1013.51 1158.15 1011.89 1158.15 1009.9C1158.15 1007.9 1156.53 1006.29 1154.54 1006.29C1152.54 1006.29 1150.92 1007.9 1150.92 1009.9C1150.92 1011.89 1152.54 1013.51 1154.54 1013.51Z" stroke="#525C6B" stroke-width="0.4729" stroke-miterlimit="10"/>
<path d="M1168.63 1013.51C1170.62 1013.51 1172.24 1011.89 1172.24 1009.9C1172.24 1007.9 1170.62 1006.29 1168.63 1006.29C1166.63 1006.29 1165.01 1007.9 1165.01 1009.9C1165.01 1011.89 1166.63 1013.51 1168.63 1013.51Z" stroke="#525C6B" stroke-width="0.4729" stroke-miterlimit="10"/>
<path d="M1182.72 1013.51C1184.71 1013.51 1186.33 1011.89 1186.33 1009.9C1186.33 1007.9 1184.71 1006.29 1182.72 1006.29C1180.72 1006.29 1179.11 1007.9 1179.11 1009.9C1179.11 1011.89 1180.72 1013.51 1182.72 1013.51Z" stroke="#525C6B" stroke-width="0.4729" stroke-miterlimit="10"/>
<path d="M1557.42 333.642C1557.42 335.808 1555.61 337.252 1553.81 337.252C1552 337.252 1550.19 335.447 1550.19 333.642C1550.19 331.475 1552 330.031 1553.81 330.031C1555.61 330.031 1557.42 331.475 1557.42 333.642Z" stroke="#525C6B" stroke-width="0.4729" stroke-miterlimit="10"/>
<path d="M1571.51 333.642C1571.51 335.808 1569.71 337.252 1567.9 337.252C1566.09 337.252 1564.29 335.447 1564.29 333.642C1564.29 331.475 1566.09 330.031 1567.9 330.031C1569.71 330.031 1571.51 331.475 1571.51 333.642Z" stroke="#525C6B" stroke-width="0.4729" stroke-miterlimit="10"/>
<path d="M1585.6 333.642C1585.6 335.808 1583.8 337.252 1581.99 337.252C1580.18 337.252 1578.38 335.447 1578.38 333.642C1578.38 331.475 1580.18 330.031 1581.99 330.031C1583.8 330.031 1585.6 331.475 1585.6 333.642Z" stroke="#525C6B" stroke-width="0.4729" stroke-miterlimit="10"/>
<path d="M1599.7 333.642C1599.7 335.808 1597.89 337.252 1596.08 337.252C1593.91 337.252 1592.47 335.447 1592.47 333.642C1592.47 331.475 1594.28 330.031 1596.08 330.031C1597.89 330.031 1599.7 331.475 1599.7 333.642Z" stroke="#525C6B" stroke-width="0.4729" stroke-miterlimit="10"/>
<path d="M1574.76 357.471C1618.27 357.471 1653.53 322.231 1653.53 278.761C1653.53 235.291 1618.27 200.051 1574.76 200.051C1531.26 200.051 1495.99 235.291 1495.99 278.761C1495.99 322.231 1531.26 357.471 1574.76 357.471Z" stroke="#525C6B" stroke-width="0.4729" stroke-miterlimit="10"/>
<path d="M1599.88 303.817C1613.7 289.999 1613.7 267.595 1599.88 253.777C1586.05 239.959 1563.63 239.959 1549.8 253.777C1535.97 267.595 1535.97 289.999 1549.8 303.816C1563.63 317.634 1586.05 317.634 1599.88 303.817Z" stroke="#525C6B" stroke-width="0.4729" stroke-miterlimit="10"/>
<path d="M314.076 1000.51C314.076 1002.68 312.27 1004.12 310.463 1004.12C308.656 1004.12 306.85 1002.32 306.85 1000.51C306.85 998.706 308.656 996.9 310.463 996.9C312.27 996.9 314.076 998.706 314.076 1000.51Z" stroke="#525C6B" stroke-width="0.4744" stroke-miterlimit="10"/>
<path d="M328.168 1000.51C328.168 1002.68 326.361 1004.12 324.555 1004.12C322.748 1004.12 320.941 1002.32 320.941 1000.51C320.941 998.706 322.748 996.9 324.555 996.9C326.361 996.9 328.168 998.706 328.168 1000.51Z" stroke="#525C6B" stroke-width="0.4744" stroke-miterlimit="10"/>
<path d="M338.647 1004.12C340.642 1004.12 342.26 1002.5 342.26 1000.51C342.26 998.517 340.642 996.9 338.647 996.9C336.651 996.9 335.033 998.517 335.033 1000.51C335.033 1002.5 336.651 1004.12 338.647 1004.12Z" stroke="#525C6B" stroke-width="0.4744" stroke-miterlimit="10"/>
<path d="M352.738 1004.12C354.734 1004.12 356.352 1002.5 356.352 1000.51C356.352 998.517 354.734 996.9 352.738 996.9C350.743 996.9 349.125 998.517 349.125 1000.51C349.125 1002.5 350.743 1004.12 352.738 1004.12Z" stroke="#525C6B" stroke-width="0.4744" stroke-miterlimit="10"/>
<path d="M331.782 1024.34C375.286 1024.34 410.553 989.101 410.553 945.63C410.553 902.16 375.286 866.92 331.782 866.92C288.278 866.92 253.012 902.16 253.012 945.63C253.012 989.101 288.278 1024.34 331.782 1024.34Z" stroke="#525C6B" stroke-width="0.4744" stroke-miterlimit="10"/>
<path d="M331.782 981.014C351.338 981.014 367.192 965.172 367.192 945.63C367.192 926.089 351.338 910.247 331.782 910.247C312.225 910.247 296.371 926.089 296.371 945.63C296.371 965.172 312.225 981.014 331.782 981.014Z" stroke="#525C6B" stroke-width="0.4744" stroke-miterlimit="10"/>
<path d="M230.609 461.816C230.609 460.372 231.693 459.289 233.139 459.289C234.584 459.289 235.668 460.372 235.668 461.816C235.668 463.26 234.584 464.343 233.139 464.343C231.693 464.343 230.609 463.26 230.609 461.816Z" fill="#525C6B"/>
<path d="M223.383 464.343C224.78 464.343 225.912 463.212 225.912 461.816C225.912 460.42 224.78 459.289 223.383 459.289C221.986 459.289 220.854 460.42 220.854 461.816C220.854 463.212 221.986 464.343 223.383 464.343Z" fill="#525C6B"/>
<path d="M211.098 461.816C211.098 460.372 212.182 459.289 213.627 459.289C215.072 459.289 216.156 460.372 216.156 461.816C216.156 463.26 215.072 464.343 213.627 464.343C212.543 464.343 211.098 463.26 211.098 461.816Z" fill="#525C6B"/>
<path d="M204.232 464.343C205.629 464.343 206.762 463.212 206.762 461.816C206.762 460.42 205.629 459.289 204.232 459.289C202.836 459.289 201.703 460.42 201.703 461.816C201.703 463.212 202.836 464.343 204.232 464.343Z" fill="#525C6B"/>
<path d="M271.805 507.873C276.569 478.544 256.637 450.911 227.286 446.151C197.936 441.391 170.281 461.308 165.518 490.636C160.754 519.964 180.686 547.598 210.037 552.358C239.387 557.117 267.042 537.201 271.805 507.873Z" stroke="#525C6B" stroke-width="0.4729" stroke-miterlimit="10"/>
<path d="M194.477 499.366C194.477 486.007 205.317 475.175 218.686 475.175C232.055 475.175 242.895 486.007 242.895 499.366C242.895 512.725 232.055 523.556 218.686 523.556C205.317 523.556 194.477 512.725 194.477 499.366Z" stroke="#525C6B" stroke-width="0.4729" stroke-miterlimit="10"/>
<path d="M1583.07 200.412C1610.17 107.26 1696.17 39.0203 1798.07 39.0203C1802.76 39.0203 1807.1 39.0203 1811.44 39.3813" stroke="#525C6B" stroke-width="0.4729" stroke-miterlimit="10"/>
<path d="M1333.03 517.78H1470.34L1559.95 428.238H1664.37L1747.48 345.195H1857.69" stroke="#525C6B" stroke-width="0.4729" stroke-miterlimit="10"/>
<path d="M1470.34 520.668C1471.94 520.668 1473.23 519.375 1473.23 517.78C1473.23 516.185 1471.94 514.891 1470.34 514.891C1468.74 514.891 1467.45 516.185 1467.45 517.78C1467.45 519.375 1468.74 520.668 1470.34 520.668Z" fill="#525C6B"/>
<path d="M1747.48 348.084C1749.08 348.084 1750.37 346.791 1750.37 345.195C1750.37 343.6 1749.08 342.307 1747.48 342.307C1745.88 342.307 1744.59 343.6 1744.59 345.195C1744.59 346.791 1745.88 348.084 1747.48 348.084Z" fill="#525C6B"/>
<path d="M1669.8 426.072C1669.8 428.96 1667.63 431.126 1664.74 431.126C1661.85 431.126 1659.68 428.96 1659.68 426.072C1659.68 423.183 1661.85 421.017 1664.74 421.017C1667.27 421.017 1669.8 423.544 1669.8 426.072Z" fill="#525C6B"/>
<path d="M1319.66 468.676H1557.42L1605.48 516.697H1803.13" stroke="#525C6B" stroke-width="0.1891" stroke-miterlimit="10"/>
<path d="M1214.15 318.477H1459.5L1516.95 375.524V415.24H1360.49L1333.39 388.522" stroke="#525C6B" stroke-width="0.1891" stroke-miterlimit="10"/>
<path d="M1516.95 418.128C1518.55 418.128 1519.84 416.835 1519.84 415.24C1519.84 413.645 1518.55 412.352 1516.95 412.352C1515.35 412.352 1514.06 413.645 1514.06 415.24C1514.06 416.835 1515.35 418.128 1516.95 418.128Z" fill="#525C6B"/>
<path d="M1464.56 318.477C1464.56 321.366 1462.39 323.532 1459.5 323.532C1456.61 323.532 1454.44 321.366 1454.44 318.477C1454.44 315.589 1456.61 313.422 1459.5 313.422C1462.39 313.061 1464.56 315.589 1464.56 318.477Z" fill="#525C6B"/>
<path d="M1632.94 511.281L1637.28 509.476L1632.94 506.948V511.281Z" fill="#2D57B4"/>
<path d="M1641.25 511.281L1645.59 509.476L1641.25 506.948V511.281Z" fill="#2D57B4"/>
<path d="M1649.56 511.281L1653.9 509.476L1649.56 506.948V511.281Z" fill="#2D57B4"/>
<path d="M1657.87 511.281L1662.21 509.476L1657.87 506.948V511.281Z" fill="#2D57B4"/>
<path d="M1406.38 196.44L1413.25 193.552L1406.38 189.941V196.44Z" fill="#525C6B"/>
<path d="M1419.03 196.44L1425.89 193.552L1419.03 189.941V196.44Z" fill="#525C6B"/>
<path d="M1432.04 196.44L1438.54 193.552L1432.04 189.941V196.44Z" fill="#525C6B"/>
<path d="M1444.68 196.44L1451.55 193.552L1444.68 189.941V196.44Z" fill="#525C6B"/>
<path d="M473.785 246.627L480.65 243.739L473.785 240.128V246.627Z" fill="#525C6B"/>
<path d="M486.432 246.627L493.297 243.739L486.432 240.128V246.627Z" fill="#525C6B"/>
<path d="M499.439 246.627L506.305 243.739L499.439 240.128V246.627Z" fill="#525C6B"/>
<path d="M512.086 246.627L518.951 243.739L512.086 240.128V246.627Z" fill="#525C6B"/>
<path d="M1544.41 690.003H1541.52V695.058H1544.41V690.003Z" fill="#2D57B4"/>
<path d="M1549.11 690.003H1546.22V695.058H1549.11V690.003Z" fill="#2D57B4"/>
<path d="M1553.81 690.003H1550.92V695.058H1553.81V690.003Z" fill="#2D57B4"/>
<path d="M1558.5 690.003H1555.61V695.058H1558.5V690.003Z" fill="#2D57B4"/>
<path d="M1563.56 690.003H1560.67V695.058H1563.56V690.003Z" fill="#2D57B4"/>
<path d="M531.961 927.217H526.902V936.604H531.961V927.217Z" fill="#2D57B4"/>
<path d="M540.994 927.217H535.936V936.604H540.994V927.217Z" fill="#2D57B4"/>
<path d="M549.666 927.217H544.607V936.604H549.666V927.217Z" fill="#2D57B4"/>
<path d="M558.699 927.217H553.641V936.604H558.699V927.217Z" fill="#2D57B4"/>
<path d="M567.371 927.217H562.312V936.604H567.371V927.217Z" fill="#2D57B4"/>
<path d="M529.432 421.378H524.373V430.765H529.432V421.378Z" fill="#2D57B4"/>
<path d="M538.104 421.378H533.045V430.765H538.104V421.378Z" fill="#2D57B4"/>
<path d="M547.137 421.378H542.078V430.765H547.137V421.378Z" fill="#2D57B4"/>
<path d="M555.809 421.378H550.75V430.765H555.809V421.378Z" fill="#2D57B4"/>
<path d="M564.842 421.378H559.783V430.765H564.842V421.378Z" fill="#2D57B4"/>
<path d="M1339.18 1060.08H1328.34V1070.92H1339.18V1060.08Z" stroke="#525C6B" stroke-width="0.4729" stroke-miterlimit="10"/>
<path d="M1361.58 1060.08H1350.74V1070.92H1361.58V1060.08Z" stroke="#525C6B" stroke-width="0.4729" stroke-miterlimit="10"/>
<path d="M1383.98 1060.08H1373.14V1070.92H1383.98V1060.08Z" stroke="#525C6B" stroke-width="0.4729" stroke-miterlimit="10"/>
<path d="M1406.38 1060.08H1395.54V1070.92H1406.38V1060.08Z" stroke="#525C6B" stroke-width="0.4729" stroke-miterlimit="10"/>
<path d="M147.502 766.547H160.871" stroke="#525C6B" stroke-width="0.4729" stroke-miterlimit="10"/>
<path d="M171.711 760.409H160.871V771.241H171.711V760.409Z" stroke="#525C6B" stroke-width="0.4729" stroke-miterlimit="10"/>
<path d="M171.35 766.547H183.274" stroke="#525C6B" stroke-width="0.4729" stroke-miterlimit="10"/>
<path d="M194.113 760.409H183.273V771.241H194.113V760.409Z" stroke="#525C6B" stroke-width="0.4729" stroke-miterlimit="10"/>
<path d="M193.752 766.547H205.676" stroke="#525C6B" stroke-width="0.4729" stroke-miterlimit="10"/>
<path d="M216.516 760.409H205.676V771.241H216.516V760.409Z" stroke="#525C6B" stroke-width="0.4729" stroke-miterlimit="10"/>
<path d="M216.154 766.547H228.078" stroke="#525C6B" stroke-width="0.4729" stroke-miterlimit="10"/>
<path d="M238.557 766.547H250.481" stroke="#525C6B" stroke-width="0.4729" stroke-miterlimit="10"/>
<path d="M238.918 760.409H228.078V771.241H238.918V760.409Z" stroke="#525C6B" stroke-width="0.4729" stroke-miterlimit="10"/>
<path d="M609.285 1026.51H617.957" stroke="#525C6B" stroke-width="0.3437" stroke-miterlimit="10"/>
<path d="M625.906 1022.17H617.957V1030.12H625.906V1022.17Z" stroke="#525C6B" stroke-width="0.3437" stroke-miterlimit="10"/>
<path d="M625.906 1026.51H634.217" stroke="#525C6B" stroke-width="0.3437" stroke-miterlimit="10"/>
<path d="M642.166 1022.17H634.217V1030.12H642.166V1022.17Z" stroke="#525C6B" stroke-width="0.3437" stroke-miterlimit="10"/>
<path d="M642.166 1026.51H650.477" stroke="#525C6B" stroke-width="0.3437" stroke-miterlimit="10"/>
<path d="M658.426 1022.17H650.477V1030.12H658.426V1022.17Z" stroke="#525C6B" stroke-width="0.3437" stroke-miterlimit="10"/>
<path d="M658.426 1026.51H666.736" stroke="#525C6B" stroke-width="0.3437" stroke-miterlimit="10"/>
<path d="M674.686 1026.51H682.996" stroke="#525C6B" stroke-width="0.3437" stroke-miterlimit="10"/>
<path d="M674.686 1022.17H666.736V1030.12H674.686V1022.17Z" stroke="#525C6B" stroke-width="0.3437" stroke-miterlimit="10"/>
<path d="M1337.73 648.843H1351.1" stroke="#525C6B" stroke-width="0.3897" stroke-miterlimit="10"/>
<path d="M1362.66 642.344H1350.74V654.259H1362.66V642.344Z" stroke="#525C6B" stroke-width="0.3897" stroke-miterlimit="10"/>
<path d="M1363.02 648.843H1376.03" stroke="#525C6B" stroke-width="0.3897" stroke-miterlimit="10"/>
<path d="M1387.96 642.344H1376.03V654.259H1387.96V642.344Z" stroke="#525C6B" stroke-width="0.3897" stroke-miterlimit="10"/>
<path d="M1387.96 648.843H1401.32" stroke="#525C6B" stroke-width="0.3897" stroke-miterlimit="10"/>
<path d="M1412.89 642.344H1400.96V654.259H1412.89V642.344Z" stroke="#525C6B" stroke-width="0.3897" stroke-miterlimit="10"/>
<path d="M1413.25 648.843H1426.26" stroke="#525C6B" stroke-width="0.3897" stroke-miterlimit="10"/>
<path d="M1438.18 648.843H1451.55L1489.49 687.115H1565.37L1664.73 587.463H1735.92" stroke="#525C6B" stroke-width="0.3897" stroke-miterlimit="10"/>
<path d="M1437.82 642.344H1425.89V654.259H1437.82V642.344Z" stroke="#525C6B" stroke-width="0.3897" stroke-miterlimit="10"/>
<path d="M1670.16 587.463C1670.16 590.352 1667.99 592.518 1665.1 592.518C1662.21 592.518 1660.04 590.352 1660.04 587.463C1660.04 584.575 1662.21 582.409 1665.1 582.409C1667.63 582.409 1670.16 584.575 1670.16 587.463Z" fill="#525C6B"/>
<path d="M1735.92 591.074L1742.78 587.825L1735.92 584.214V591.074Z" fill="#525C6B"/>
<path d="M1081.19 929.022H1305.93L1373.14 996.178H1619.21L1744.59 870.892H1808.55L1924.17 986.791H2043.77" stroke="#525C6B" stroke-width="0.4729" stroke-miterlimit="10"/>
<path d="M1282.81 783.517H1413.25L1454.08 742.717H1522.73L1602.23 822.149H1697.26" stroke="#525C6B" stroke-width="0.4729" stroke-miterlimit="10"/>
<path d="M1234.39 842.369H1299.43L1338.09 881.002H1516.23L1542.97 853.922L1506.47 817.456H1431.68L1407.11 842.369" stroke="#525C6B" stroke-width="0.1891" stroke-miterlimit="10"/>
<path d="M1174.41 929.022L1214.15 968.738H1289.31" stroke="#525C6B" stroke-width="0.1891" stroke-miterlimit="10"/>
<path d="M1043.24 938.771L1127.8 1022.9H1274.14L1317.5 1066.22" stroke="#525C6B" stroke-width="0.4729" stroke-miterlimit="10"/>
<path d="M1867.44 345.195H1891.29L1933.93 387.8H1992.1" stroke="#525C6B" stroke-width="0.4729" stroke-miterlimit="10"/>
<path d="M1633.3 996.178H1715.68" stroke="#525C6B" stroke-width="0.4729" stroke-miterlimit="10"/>
<path d="M1715.68 999.789L1722.55 996.539L1715.68 992.568V999.789Z" fill="#525C6B"/>
<path d="M1602.59 825.038C1604.18 825.038 1605.48 823.745 1605.48 822.15C1605.48 820.554 1604.18 819.261 1602.59 819.261C1600.99 819.261 1599.7 820.554 1599.7 822.15C1599.7 823.745 1600.99 825.038 1602.59 825.038Z" fill="#525C6B"/>
<path d="M1454.8 745.606C1456.4 745.606 1457.69 744.313 1457.69 742.717C1457.69 741.122 1456.4 739.829 1454.8 739.829C1453.21 739.829 1451.91 741.122 1451.91 742.717C1451.91 744.313 1453.21 745.606 1454.8 745.606Z" fill="#525C6B"/>
<path d="M1409.63 842.369C1409.63 843.813 1408.55 845.257 1406.74 845.257C1405.3 845.257 1403.85 844.174 1403.85 842.369C1403.85 840.924 1404.94 839.48 1406.74 839.48C1408.55 839.841 1409.63 840.924 1409.63 842.369Z" fill="#525C6B"/>
<path d="M1291.84 968.738C1291.84 970.182 1290.76 971.627 1288.95 971.627C1287.51 971.627 1286.06 970.543 1286.06 968.738C1286.06 967.294 1287.14 965.85 1288.95 965.85C1290.76 965.85 1291.84 966.933 1291.84 968.738Z" fill="#525C6B"/>
<path d="M1305.93 931.91C1307.53 931.91 1308.82 930.617 1308.82 929.022C1308.82 927.427 1307.53 926.134 1305.93 926.134C1304.34 926.134 1303.04 927.427 1303.04 929.022C1303.04 930.617 1304.34 931.91 1305.93 931.91Z" fill="#525C6B"/>
<path d="M1510.09 817.456C1510.09 818.9 1509 820.344 1507.2 820.344C1505.75 820.344 1504.3 819.261 1504.3 817.456C1504.3 816.012 1505.39 814.567 1507.2 814.567C1509 814.928 1510.09 816.012 1510.09 817.456Z" fill="#525C6B"/>
<path d="M1412.89 784.961C1414.48 784.961 1415.78 783.668 1415.78 782.073C1415.78 780.477 1414.48 779.184 1412.89 779.184C1411.29 779.184 1410 780.477 1410 782.073C1410 783.668 1411.29 784.961 1412.89 784.961Z" fill="#525C6B"/>
<path d="M1697.26 827.204C1700.05 827.204 1702.31 824.941 1702.31 822.149C1702.31 819.358 1700.05 817.095 1697.26 817.095C1694.46 817.095 1692.2 819.358 1692.2 822.149C1692.2 824.941 1694.46 827.204 1697.26 827.204Z" fill="#525C6B"/>
<path d="M1523.09 747.772C1525.89 747.772 1528.15 745.509 1528.15 742.717C1528.15 739.926 1525.89 737.663 1523.09 737.663C1520.3 737.663 1518.04 739.926 1518.04 742.717C1518.04 745.509 1520.3 747.772 1523.09 747.772Z" fill="#525C6B"/>
<path d="M1287.87 784.961C1287.87 787.849 1285.7 790.016 1282.81 790.016C1279.92 790.016 1277.75 787.849 1277.75 784.961C1277.75 782.072 1279.92 779.906 1282.81 779.906C1285.7 779.906 1287.87 782.072 1287.87 784.961Z" fill="#525C6B"/>
<path d="M1520.56 881.002C1520.56 883.89 1518.4 886.056 1515.51 886.056C1512.62 886.056 1510.45 883.89 1510.45 881.002C1510.45 878.113 1512.62 875.947 1515.51 875.947C1518.04 875.586 1520.56 878.113 1520.56 881.002Z" fill="#525C6B"/>
<path d="M1218.13 968.738C1218.13 971.626 1215.96 973.793 1213.07 973.793C1210.18 973.793 1208.01 971.626 1208.01 968.738C1208.01 965.849 1210.18 963.683 1213.07 963.683C1215.6 963.322 1218.13 965.849 1218.13 968.738Z" fill="#525C6B"/>
<path d="M1272.69 1027.95C1275.49 1027.95 1277.75 1025.69 1277.75 1022.9C1277.75 1020.1 1275.49 1017.84 1272.69 1017.84C1269.9 1017.84 1267.63 1020.1 1267.63 1022.9C1267.63 1025.69 1269.9 1027.95 1272.69 1027.95Z" fill="#525C6B"/>
<path d="M1378.56 996.178C1378.56 999.067 1376.39 1001.23 1373.5 1001.23C1370.61 1001.23 1368.44 999.067 1368.44 996.178C1368.44 993.29 1370.61 991.124 1373.5 991.124C1376.03 991.124 1378.56 993.29 1378.56 996.178Z" fill="#525C6B"/>
<path d="M1304.49 842.369C1304.49 845.257 1302.32 847.424 1299.43 847.424C1296.54 847.424 1294.37 845.257 1294.37 842.369C1294.37 839.48 1296.54 837.314 1299.43 837.314C1302.32 837.314 1304.49 839.48 1304.49 842.369Z" stroke="#525C6B" stroke-width="0.4729" stroke-miterlimit="10"/>
<path d="M748.037 849.229L710.459 886.779H630.604L573.514 944.186H367.555" stroke="#525C6B" stroke-width="0.4729" stroke-miterlimit="10"/>
<path d="M726.357 350.611L630.604 254.931H466.56L425.729 213.771H200.981L177.494 190.302" stroke="#525C6B" stroke-width="0.4729" stroke-miterlimit="10"/>
<path d="M644.335 500.81L588.329 444.846H418.864L348.404 374.441H461.501L486.433 399.354" stroke="#525C6B" stroke-width="0.1891" stroke-miterlimit="10"/>
<path d="M640.36 517.78H496.189L447.77 566.161H285.532L218.686 499.366" stroke="#525C6B" stroke-width="0.4729" stroke-miterlimit="10"/>
<path d="M633.133 582.409H514.616L467.643 535.833H159.065L78.8496 615.626V680.255" stroke="#525C6B" stroke-width="0.1891" stroke-miterlimit="10"/>
<path d="M640.36 673.034H429.342L335.757 766.547H246.869" stroke="#525C6B" stroke-width="0.4729" stroke-miterlimit="10"/>
<path d="M681.913 768.713H586.16L530.876 824.316H429.342" stroke="#525C6B" stroke-width="0.1891" stroke-miterlimit="10"/>
<path d="M296.732 944.186H218.684L157.619 1004.84H21.0357L-33.8867 949.963" stroke="#525C6B" stroke-width="0.4729" stroke-miterlimit="10"/>
<path d="M890.762 931.91L820.302 1001.96H708.289L643.249 1066.95H514.615" stroke="#525C6B" stroke-width="0.4729" stroke-miterlimit="10"/>
<path d="M954.358 204.023H775.86L721.299 149.503H565.926" stroke="#525C6B" stroke-width="0.1891" stroke-miterlimit="10"/>
<path d="M638.192 254.209C638.192 257.098 636.024 259.264 633.133 259.264C630.242 259.264 628.074 257.098 628.074 254.209C628.074 251.321 630.242 249.155 633.133 249.155C636.024 249.155 638.192 251.321 638.192 254.209Z" fill="#525C6B"/>
<path d="M82.1016 683.143C82.1016 684.948 80.6563 686.032 79.211 686.032C77.7657 686.032 76.3203 684.587 76.3203 683.143C76.3203 681.338 77.7657 680.255 79.211 680.255C80.6563 680.255 82.1016 681.699 82.1016 683.143Z" fill="#525C6B"/>
<path d="M426.09 217.021C427.686 217.021 428.98 215.727 428.98 214.132C428.98 212.537 427.686 211.244 426.09 211.244C424.493 211.244 423.199 212.537 423.199 214.132C423.199 215.727 424.493 217.021 426.09 217.021Z" fill="#525C6B"/>
<path d="M586.16 771.602C587.757 771.602 589.051 770.309 589.051 768.713C589.051 767.118 587.757 765.825 586.16 765.825C584.564 765.825 583.27 767.118 583.27 768.713C583.27 770.309 584.564 771.602 586.16 771.602Z" fill="#525C6B"/>
<path d="M289.145 566.161C289.145 567.606 288.061 569.05 286.254 569.05C284.809 569.05 283.363 567.967 283.363 566.161C283.363 564.717 284.447 563.273 286.254 563.273C288.061 563.273 289.145 564.717 289.145 566.161Z" fill="#525C6B"/>
<path d="M466.559 257.098C468.155 257.098 469.449 255.804 469.449 254.209C469.449 252.614 468.155 251.321 466.559 251.321C464.962 251.321 463.668 252.614 463.668 254.209C463.668 255.804 464.962 257.098 466.559 257.098Z" fill="#525C6B"/>
<path d="M353.463 374.441C353.463 377.329 351.295 379.496 348.404 379.496C345.514 379.496 343.346 377.329 343.346 374.441C343.346 371.552 345.514 369.386 348.404 369.386C351.295 369.386 353.463 371.552 353.463 374.441Z" fill="#525C6B"/>
<path d="M425.006 444.485C425.006 447.374 422.838 449.54 419.947 449.54C417.057 449.54 414.889 447.374 414.889 444.485C414.889 441.597 417.057 439.431 419.947 439.431C422.477 439.431 425.006 441.597 425.006 444.485Z" fill="#525C6B"/>
<path d="M520.758 582.77C520.758 585.658 518.59 587.825 515.699 587.825C512.809 587.825 510.641 585.658 510.641 582.77C510.641 579.881 512.809 577.715 515.699 577.715C518.229 577.715 520.758 580.242 520.758 582.77Z" fill="#525C6B"/>
<path d="M335.758 771.602C338.552 771.602 340.817 769.339 340.817 766.547C340.817 763.755 338.552 761.492 335.758 761.492C332.964 761.492 330.699 763.755 330.699 766.547C330.699 769.339 332.964 771.602 335.758 771.602Z" fill="#525C6B"/>
<path d="M577.85 945.63C577.85 948.519 575.682 950.685 572.791 950.685C569.9 950.685 567.732 948.519 567.732 945.63C567.732 942.742 569.9 940.576 572.791 940.576C575.682 940.576 577.85 942.742 577.85 945.63Z" fill="#525C6B"/>
<path d="M647.225 1066.95C647.225 1069.83 645.057 1072 642.166 1072C639.275 1072 637.107 1069.83 637.107 1066.95C637.107 1064.06 639.275 1061.89 642.166 1061.89C644.695 1061.53 647.225 1064.06 647.225 1066.95Z" fill="#525C6B"/>
<path d="M820.303 1005.57C823.097 1005.57 825.361 1003.3 825.361 1000.51C825.361 997.719 823.097 995.456 820.303 995.456C817.509 995.456 815.244 997.719 815.244 1000.51C815.244 1003.3 817.509 1005.57 820.303 1005.57Z" fill="#525C6B"/>
<path d="M224.106 944.186C224.106 947.075 221.938 949.241 219.047 949.241C216.156 949.241 213.988 947.075 213.988 944.186C213.988 941.298 216.156 939.131 219.047 939.131C221.938 938.77 224.106 941.298 224.106 944.186Z" fill="#525C6B"/>
<path d="M645.418 673.034C645.418 675.922 643.25 678.089 640.359 678.089C637.469 678.089 635.301 675.922 635.301 673.034C635.301 670.145 637.469 667.979 640.359 667.979C642.889 667.979 645.418 670.145 645.418 673.034Z" fill="#525C6B"/>
<path d="M429.342 829.371C432.136 829.371 434.401 827.108 434.401 824.316C434.401 821.524 432.136 819.261 429.342 819.261C426.548 819.261 424.283 821.524 424.283 824.316C424.283 827.108 426.548 829.371 429.342 829.371Z" fill="#525C6B"/>
<path d="M796.094 974.515L718.769 1051.78H415.611" stroke="#525C6B" stroke-width="0.1891" stroke-miterlimit="10"/>
<path d="M261.322 981.014H148.948L78.4885 910.608H-119.521" stroke="#525C6B" stroke-width="0.1891" stroke-miterlimit="10"/>
<path d="M583.63 254.209L545.329 292.12H356.713L317.328 253.126" stroke="#525C6B" stroke-width="0.1891" stroke-miterlimit="10"/>
<path d="M641.082 664.007H457.164L417.779 624.652" stroke="#525C6B" stroke-width="0.1891" stroke-miterlimit="10"/>
<path d="M265.658 902.304C190.139 867.282 138.107 791.099 138.107 703.001C138.107 643.427 161.955 589.63 200.257 549.914" stroke="#525C6B" stroke-width="0.4729" stroke-miterlimit="10"/>
<path d="M1549.83 621.042L1576.57 647.76H1840.7" stroke="#525C6B" stroke-width="0.1891" stroke-miterlimit="10"/>
</g>
<defs>
<clipPath id="clip0_1792_583">
<rect width="2181" height="1081" fill="white" transform="translate(-130 -9)"/>
</clipPath>
</defs>
</svg>
